<?xml version="1.0" encoding="utf-8"?>
<!-- Generator: Adobe Illustrator 18.1.1, SVG Export Plug-In . SVG Version: 6.00 Build 0)  -->
<!DOCTYPE svg PUBLIC "-//W3C//DTD SVG 1.1//EN" "http://www.w3.org/Graphics/SVG/1.1/DTD/svg11.dtd">
<svg version="1.1" id="Layer_1" xmlns="http://www.w3.org/2000/svg" xmlns:xlink="http://www.w3.org/1999/xlink" x="0px" y="0px"
	 viewBox="296.9 384.2 18.3 23.7" enable-background="new 296.9 384.2 18.3 23.7" xml:space="preserve">
<path fill="#FFFFFF" d="M314.3,389.4c-0.2,0.2-1.2,0.5-1.9,0.6c0.5-0.2,1.2-1.2,1.4-1.9c-0.5,0.3-1.6,0.7-2.1,0.7l0,0
	c-0.7-0.7-1.5-1.1-2.5-1.1c-1.9,0-3.5,1.6-3.5,3.5c0,0.2,0,0.5,0.1,0.7l0,0c-2.6-0.1-5.4-1.4-7.1-3.5c-1.1,1.8-0.2,3.8,1,4.5
	c-0.4,0-1.2-0.1-1.5-0.4c0,1.2,0.6,2.8,2.6,3.4c-0.4,0.2-1.2,0.2-1.4,0.1c0.1,1,1.6,2.3,3,2.3c-0.6,0.7-2.6,1.8-4.9,1.4
	c1.6,1,3.5,1.5,5.3,1.5c5.6,0,9.9-4.4,9.6-10l0,0c0,0,0,0,0-0.1c0,0,0,0,0-0.1C313.2,390.8,313.9,390.2,314.3,389.4z"/>
</svg>
